# xmcd
#
# Track frame offsets:
# 150
# 16757
# 27010
# 44461
# 59269
# 72992
# 88515
# 100729
# 115880
# 128809
# 142869
# 160549
# 173051
# 189750
#
# Disc length: 2732 seconds
#
# Revision: 0
# Processed by: cddbd v1.5PL3 Copyright (c) Steve Scherf et al.
# Submitted via: Axialis_AX_CDPlayer 2.6
#
DISCID=a40aaa0e
DTITLE=The Flying Burrito Brothers - The Best of the Flying Burrito Brothers
DYEAR=1900
DGENRE=
TTITLE0=She belong to everyone but me
TTITLE1=Does she wish she was single again
TTITLE2=If something should come between us
TTITLE3=I'm drinking Canada Dry
TTITLE4=Closer to you
TTITLE5=Blue and broken hearted me
TTITLE6=Almost Saturday night
TTITLE7=Our roots are country music
TTITLE8=She's a friend of a friend
TTITLE9=Oh lonesome me
TTITLE10=Big bayou
TTITLE11=Wheels
TTITLE12=Christine's tune
TTITLE13=White line fever
EXTD=
EXTT0=
EXTT1=
EXTT2=
EXTT3=
EXTT4=
EXTT5=
EXTT6=
EXTT7=
EXTT8=
EXTT9=
EXTT10=
EXTT11=
EXTT12=
EXTT13=
PLAYORDER=
